<svg width="543" height="236" viewBox="0 0 543 236" fill="none" xmlns="http://www.w3.org/2000/svg">
<path d="M0.996351 154.902C10.3364 120.075 22.4784 83.5828 40.1143 52.0732C50.8274 32.9321 68.6512 6.84616 91.7874 1.48057C110.24 -2.79889 120.182 22.4283 123.659 35.8248C133.29 72.9327 131.832 115.97 116.89 151.571C114.75 156.669 95.635 197.287 86.0937 178.313C73.1932 152.658 95.046 120.466 112.427 103.487C123.701 92.4736 157.166 61.8669 161.238 94.1323C163.372 111.043 159.12 128.89 155.294 145.221C155.045 146.281 142.491 184.337 150.347 167.983C159.984 147.921 169.264 127.688 178.927 107.64C183.083 99.0163 188.74 86.5776 186.478 104.057C184.111 122.343 180.818 140.449 179.065 158.822C177.877 171.288 173.451 193.22 182.991 203.896C192.286 214.298 210.054 200.197 217.615 194.844C233.323 183.723 246.395 170.023 260.841 157.466C266.98 152.129 272.269 150.227 270.68 160.833C268.411 175.978 261.334 190.238 256.744 204.74C254.882 210.622 247.626 228.662 256.155 233.282C267.947 239.671 292.801 220.302 301.062 215.089C324.522 200.287 346.04 183.102 367.5 165.603C367.774 165.38 378.678 156.071 381.923 154.586C382.925 154.128 383.02 156.714 382.76 157.784C382.213 160.038 378.575 167.811 381.309 169.701C384.729 172.067 397.621 161.461 398.908 160.551C421.68 144.439 442.235 125.319 463.625 107.478C488.833 86.453 514.613 66.5778 541.3 47.5264" stroke="#DD55BF" stroke-width="1.99225" stroke-linecap="round"/>
</svg>
