<svg width="331" height="288" viewBox="0 0 331 288" fill="none" xmlns="http://www.w3.org/2000/svg">
<path d="M0.996094 86.9534C27.0975 62.0755 56.4576 37.2348 87.9158 19.5075C107.026 8.73872 135.822 -4.25944 158.37 3.20012C176.354 9.14974 171.714 35.8654 167.711 49.1141C156.622 85.8127 132.978 121.803 101.69 144.425C97.2096 147.665 59.7479 172.401 61.4758 151.233C63.8122 122.612 99.2266 106.497 122.905 101.044C138.263 97.5077 182.768 88.7898 169.453 118.46C162.474 134.011 149.554 147.037 137.788 158.991C137.024 159.767 106.498 185.729 121.718 175.852C140.388 163.737 158.842 151.291 177.528 139.201C185.564 134 196.868 126.323 185.839 140.071C174.302 154.453 162.067 168.2 151.008 182.976C143.505 193.002 128.311 209.427 130.901 223.508C133.424 237.227 155.936 234.434 165.178 233.799C184.378 232.478 202.671 227.583 221.541 224.378C229.561 223.017 235.067 224.145 228.19 232.374C218.371 244.126 204.906 252.62 193.439 262.614C188.788 266.667 173.203 278.295 178.081 286.679C184.825 298.271 216.128 294.667 225.895 294.516C253.632 294.086 280.949 290.611 308.382 286.838C308.731 286.79 322.887 284.516 326.43 284.937C327.525 285.067 326.26 287.325 325.481 288.104C323.841 289.743 316.689 294.487 318.04 297.524C319.728 301.324 336.257 298.977 337.83 298.87C365.66 296.964 393.163 291.335 420.713 287.233C453.18 282.4 485.538 278.846 518.24 276.467" stroke="#DD55BF" stroke-width="1.99225" stroke-linecap="round"/>
</svg>
