<svg width="315" height="47" viewBox="0 0 315 47" fill="none" xmlns="http://www.w3.org/2000/svg">
<g clip-path="url(#clip0_0_206)">
<g clip-path="url(#clip1_0_206)">
<path d="M-3.78537 30.7261C-3.07303 30.5837 -1.574 27.6196 -1.2236 27.1711C1.01821 24.3007 3.82179 21.7019 6.61856 19.3811C18.4947 9.52653 51.6627 3.80215 66.8094 1.76244C73.2004 0.901811 79.8913 0.239047 86.3102 1.23964C90.3865 1.87506 95.85 3.13466 98.1258 7.04284C102.531 14.6078 98.0025 24.1367 93.5249 30.3602C89.4309 36.0508 83.6283 43.3813 76.3768 44.9989C72.8552 45.7845 70.842 42.84 71.5669 39.4048C72.1761 36.5182 75.2936 34.1667 77.527 32.6083C83.1042 28.7166 89.6677 26.4035 96.139 24.5047C110.742 20.22 147.662 16.1926 161.649 24.4001C168.505 28.4227 172.993 35.5103 179.922 39.3526C190.556 45.2491 225.482 44.656 236.754 41.1562C248.059 37.646 260.789 30.8678 263.914 18.5447C264.077 17.9 264.15 15.8951 264.097 16.558C263.981 18.0074 264 19.6629 264.541 21.028C272.542 41.2047 306.898 36.2937 316.038 19.904C317.609 17.0861 318.447 13.8405 318.574 10.6241C318.67 8.17124 318.577 11.7404 318.809 12.4278C321.146 19.3653 325.537 25.6454 331.827 29.3146" stroke="#DD55BF" stroke-width="0.989362" stroke-linecap="round"/>
</g>
</g>
<defs>
<clipPath id="clip0_0_206">
<rect width="315" height="47" fill="white"/>
</clipPath>
<clipPath id="clip1_0_206">
<rect width="341" height="46" fill="white" transform="translate(-9)"/>
</clipPath>
</defs>
</svg>
