<svg width="332" height="47" viewBox="0 0 332 47" fill="none" xmlns="http://www.w3.org/2000/svg">
<g clip-path="url(#clip0_17_198)">
<g clip-path="url(#clip1_17_198)">
<path d="M326.785 30.7261C326.073 30.5837 324.574 27.6196 324.224 27.1711C321.982 24.3007 319.178 21.7019 316.381 19.3811C304.505 9.52653 271.337 3.80215 256.191 1.76244C249.8 0.901811 243.109 0.239047 236.69 1.23964C232.614 1.87506 227.15 3.13466 224.874 7.04284C220.469 14.6078 224.998 24.1367 229.475 30.3602C233.569 36.0508 239.372 43.3813 246.623 44.9989C250.145 45.7845 252.158 42.84 251.433 39.4048C250.824 36.5182 247.706 34.1667 245.473 32.6083C239.896 28.7166 233.332 26.4035 226.861 24.5047C212.258 20.22 175.338 16.1926 161.351 24.4001C154.495 28.4227 150.007 35.5103 143.078 39.3526C132.444 45.2491 97.518 44.656 86.2462 41.1562C74.9407 37.646 62.2106 30.8678 59.0862 18.5447C58.923 17.9 58.8498 15.8951 58.9032 16.558C59.019 18.0074 59.0002 19.6629 58.459 21.028C50.458 41.2047 16.1024 36.2937 6.9617 19.904C5.39059 17.0861 4.5526 13.8405 4.42596 10.6241C4.33 8.17124 4.42301 11.7404 4.1915 12.4278C1.85364 19.3653 -2.53714 25.6454 -8.82651 29.3146" stroke="#DD55BF" stroke-width="0.989362" stroke-linecap="round"/>
</g>
</g>
<defs>
<clipPath id="clip0_17_198">
<rect width="315" height="47" fill="white" transform="matrix(-1 0 0 1 323 0)"/>
</clipPath>
<clipPath id="clip1_17_198">
<rect width="341" height="46" fill="white" transform="matrix(-1 0 0 1 332 0)"/>
</clipPath>
</defs>
</svg>
